<svg xmlns="http://www.w3.org/2000/svg" viewBox="0 0 16 16"><defs><style>.cls-1{fill:none;}</style></defs><title>アセット 2</title><g id="レイヤー_2" data-name="レイヤー 2"><g id="ハンバーガーm"><g id="コンテンツ"><g id="Search"><rect id="長方形_176" data-name="長方形 176" class="cls-1" width="16" height="16"/><path id="パス_99" data-name="パス 99" d="M15.9,14.5l-3.3-3.3A6.85,6.85,0,0,0,14,7,7,7,0,0,0,7.09,0H7A7,7,0,0,0,0,6.91V7a7,7,0,0,0,6.91,7H7a6.85,6.85,0,0,0,4.2-1.4l3.3,3.3ZM2,7A5,5,0,0,1,6.9,2H7a5,5,0,0,1,5,4.9V7a5,5,0,0,1-4.9,5H7A5,5,0,0,1,2,7.1Z"/></g></g></g></g></svg>