<svg xmlns="http://www.w3.org/2000/svg" viewBox="0 0 158.47 20.74"><title>アセット 1</title><g id="レイヤー_2" data-name="レイヤー 2"><g id="TOP"><g id="コンテンツ"><path d="M0,20.4V.36H2.65V18h9.87V20.4Z"/><path d="M14.88,10.64c0-3.33.89-5.93,2.67-7.82A9.13,9.13,0,0,1,24.47,0a9.58,9.58,0,0,1,5,1.33A8.65,8.65,0,0,1,32.87,5,12,12,0,0,1,34,10.4a11.8,11.8,0,0,1-1.23,5.46,8.39,8.39,0,0,1-3.48,3.64,9.94,9.94,0,0,1-4.87,1.24,9.5,9.5,0,0,1-5.06-1.37A8.84,8.84,0,0,1,16,15.64,11.37,11.37,0,0,1,14.88,10.64Zm2.73,0a8,8,0,0,0,1.95,5.71,6.41,6.41,0,0,0,4.89,2.08,6.4,6.4,0,0,0,4.92-2.1,8.54,8.54,0,0,0,1.94-6,10.26,10.26,0,0,0-.83-4.27,6.34,6.34,0,0,0-2.42-2.83,6.55,6.55,0,0,0-3.57-1,6.78,6.78,0,0,0-4.85,1.94Q17.61,6.15,17.61,10.68Z"/><path d="M46.84,12.54V10.19l8.49,0v7.44a14.86,14.86,0,0,1-4,2.34,11.87,11.87,0,0,1-4.27.79,11.36,11.36,0,0,1-5.36-1.26A8.43,8.43,0,0,1,38,15.82a11.55,11.55,0,0,1-1.23-5.35A12.47,12.47,0,0,1,38,5a8.14,8.14,0,0,1,3.53-3.77A11,11,0,0,1,46.83,0a10.46,10.46,0,0,1,3.93.71,6.46,6.46,0,0,1,2.75,2A8.69,8.69,0,0,1,55,6l-2.39.66a7.53,7.53,0,0,0-1.12-2.41,4.66,4.66,0,0,0-1.92-1.4,7,7,0,0,0-2.76-.53,8.08,8.08,0,0,0-3.14.56,5.82,5.82,0,0,0-2.14,1.45,6.8,6.8,0,0,0-1.27,2,10.48,10.48,0,0,0-.76,4,9.69,9.69,0,0,0,.92,4.48,5.85,5.85,0,0,0,2.68,2.68,8.27,8.27,0,0,0,3.75.88,8.72,8.72,0,0,0,3.36-.67,8.52,8.52,0,0,0,2.49-1.41V12.54Z"/><path d="M58.43,10.64a10.94,10.94,0,0,1,2.68-7.82A9.13,9.13,0,0,1,68,0a9.58,9.58,0,0,1,5,1.33A8.65,8.65,0,0,1,76.43,5,12,12,0,0,1,77.6,10.4a11.8,11.8,0,0,1-1.23,5.46,8.36,8.36,0,0,1-3.49,3.64A9.87,9.87,0,0,1,68,20.74,9.47,9.47,0,0,1,63,19.37a8.77,8.77,0,0,1-3.38-3.73A11.38,11.38,0,0,1,58.43,10.64Zm2.74,0a8,8,0,0,0,1.95,5.71,6.8,6.8,0,0,0,9.81,0,8.54,8.54,0,0,0,1.94-6A10.26,10.26,0,0,0,74,6.12a6.34,6.34,0,0,0-2.42-2.83,6.56,6.56,0,0,0-3.58-1A6.78,6.78,0,0,0,63.2,4.22C61.84,5.51,61.17,7.66,61.17,10.68Z"/><path d="M94.1,20.4V2.72H87.5V.36h15.88V2.72H96.75V20.4Z"/><path d="M111.75,20.4V11.91L104,.36h3.23l4,6q1.1,1.7,2,3.39.9-1.57,2.19-3.54L119.31.36h3.09l-8,11.55V20.4Z"/><path d="M124.78,20.4V.36h7.56a18,18,0,0,1,3,.19,6,6,0,0,1,2.47.93,4.93,4.93,0,0,1,1.61,1.94,6.21,6.21,0,0,1,.61,2.73,6.14,6.14,0,0,1-1.63,4.33q-1.62,1.77-5.88,1.77h-5.14V20.4Zm2.65-10.52h5.18a5.47,5.47,0,0,0,3.65-1,3.42,3.42,0,0,0,1.08-2.7,3.66,3.66,0,0,0-.63-2.15A3,3,0,0,0,135,2.9a11.12,11.12,0,0,0-2.47-.18h-5.13Z"/><path d="M143.51,20.4V.36H158V2.72H146.16V8.86h11.09v2.35H146.16V18h12.31V20.4Z"/></g></g></g></svg>