<svg xmlns="http://www.w3.org/2000/svg" viewBox="0 0 50 20.32"><defs><style>.cls-1,.cls-2{fill:#fff;}.cls-2{stroke:#fff;stroke-miterlimit:10;stroke-width:2.14px;}</style></defs><title>アセット 1</title><g id="レイヤー_2" data-name="レイヤー 2"><g id="詳細ページ"><g id="コンテンツ"><g id="アイキャッチ"><g id="メール共有バナー"><g id="グループ化_881" data-name="グループ化 881"><path id="パス_421" data-name="パス 421" class="cls-1" d="M49.93,2.89a3.48,3.48,0,0,0-.78-1.57c-.09-.09-.17-.19-.26-.27A4,4,0,0,0,46.2,0H26.38a3.93,3.93,0,0,0-2.69,1.05,3.31,3.31,0,0,0-.26.27,3.48,3.48,0,0,0-.78,1.57,3.33,3.33,0,0,0-.07.7V16.73a3.38,3.38,0,0,0,.31,1.43,3.61,3.61,0,0,0,.8,1.11l.26.23a4,4,0,0,0,2.43.82H46.2a3.89,3.89,0,0,0,2.42-.82l.27-.23a3.61,3.61,0,0,0,.8-1.11h0A3.34,3.34,0,0,0,50,16.74V3.59A3.26,3.26,0,0,0,49.93,2.89ZM25.07,2.35a1.9,1.9,0,0,1,1.31-.52H46.2a1.89,1.89,0,0,1,1.48.7L37.29,11.08a1.59,1.59,0,0,1-2,0L24.91,2.53a.69.69,0,0,1,.16-.18Zm-.55,14.38V4.43L32,10.62l-7.51,6.19a.22.22,0,0,1,0-.08ZM46.2,18.49H26.38a2,2,0,0,1-.92-.23l7.93-6.53.74.61a3.45,3.45,0,0,0,4.33,0l.74-.61,7.92,6.53a2,2,0,0,1-.92.23Zm1.86-1.76v.08l-7.52-6.18,7.52-6.2Z"/></g><line class="cls-2" x1="4.29" y1="5.76" x2="20.71" y2="5.76"/><line class="cls-2" x1="12.14" y1="10.76" x2="19.29" y2="10.76"/><line class="cls-2" y1="15.76" x2="20" y2="15.76"/></g></g></g></g></g></svg>