<svg xmlns="http://www.w3.org/2000/svg" viewBox="0 0 16.42 12.17"><defs><style>.cls-1{fill:#fff;}</style></defs><title>アセット 1</title><g id="レイヤー_2" data-name="レイヤー 2"><g id="原料詳細"><g id="コンテンツ"><g id="アイキャッチ"><g id="グループ化_881" data-name="グループ化 881"><path id="パス_421" data-name="パス 421" class="cls-1" d="M16.38,1.73a2,2,0,0,0-.47-.94L15.76.63A2.37,2.37,0,0,0,14.15,0H2.28A2.36,2.36,0,0,0,.67.63,1.21,1.21,0,0,0,.51.79,2.26,2.26,0,0,0,0,1.73a2,2,0,0,0,0,.42V10a2,2,0,0,0,.19.86,2,2,0,0,0,.48.66l.15.14a2.38,2.38,0,0,0,1.46.49H14.15a2.35,2.35,0,0,0,1.45-.49l.16-.14a2.38,2.38,0,0,0,.48-.66h0a2,2,0,0,0,.18-.86V2.15A2,2,0,0,0,16.38,1.73ZM1.49,1.41a1.14,1.14,0,0,1,.79-.31H14.15a1.09,1.09,0,0,1,.88.42L8.81,6.64a1,1,0,0,1-1.19,0L1.4,1.51l.09-.1ZM1.17,10V2.65l4.5,3.71-4.5,3.71V10Zm13,1.05H2.28a1.18,1.18,0,0,1-.55-.14L6.48,7l.44.36a2.06,2.06,0,0,0,2.59,0L10,7l4.75,3.9a1.07,1.07,0,0,1-.55.14ZM15.26,10v.05l-4.5-3.71,4.5-3.7Z"/></g></g></g></g></g></svg>